<?xml version="1.0" encoding="UTF-8" standalone="no"?>
<!-- Created with Inkscape (http://www.inkscape.org/) -->

<svg
   width="22"
   height="22"
   viewBox="0 0 22 22"
   version="1.1"
   id="svg1"
   xml:space="preserve"
   xmlns="http://www.w3.org/2000/svg"
   xmlns:svg="http://www.w3.org/2000/svg"><defs
     id="defs1" /><path
     id="rect3"
     style="fill:#1a1a1a;stroke-width:0.71807"
     d="M 5.5,5 C 2.6398353,5 0,7.5126325 0,10.632812 v 0.734376 C 0,14.487367 2.6398353,17 5.5,17 h 11 C 19.360165,17 22,14.487367 22,11.367188 V 10.632812 C 22,7.5126325 19.360165,5 16.5,5 Z M 5,7 h 12 v 8 H 5 Z M 2.75,10.5 A 1.25,1.25 0 0 1 4,11.75 1.25,1.25 0 0 1 2.75,13 1.25,1.25 0 0 1 1.5,11.75 1.25,1.25 0 0 1 2.75,10.5 Z m 16.5,0 A 1.25,1.25 0 0 1 20.5,11.75 1.25,1.25 0 0 1 19.25,13 1.25,1.25 0 0 1 18,11.75 1.25,1.25 0 0 1 19.25,10.5 Z" /><rect
     style="fill:#1a1a1a;stroke-width:1.02222"
     id="rect1"
     width="10"
     height="6"
     x="6"
     y="8" /></svg>
